<svg
  xmlns="http://www.w3.org/2000/svg"
  viewBox="0 0 312 72"
  role="img"
  preserveAspectRatio="xMinYMid meet"
>
  <title>Sentry0 logo</title>
  <desc>Horizontal Sentry0 lockup with a guarded zero symbol and compact premium wordmark.</desc>
  <g fill="#f3f3f1">
    <path d="M0 18L8 10H16V62H8L0 54Z" />
    <path
      fill-rule="evenodd"
      d="M24 18L34 8H48L58 18V54L48 64H34L24 54Z M34 27L39 22H43L48 27V45L43 50H39L34 45Z"
    />
    <path d="M40 18H47L33 54H26Z" />
  </g>
  <text
    x="82"
    y="50"
    fill="#f3f3f1"
    font-family="'Avenir Next', 'Segoe UI', Arial, sans-serif"
    font-size="34"
    font-weight="600"
    letter-spacing="3.4"
    textLength="168"
    lengthAdjust="spacingAndGlyphs"
  >
    SENTRY
  </text>
  <g transform="translate(262 16)" fill="#f3f3f1">
    <path
      fill-rule="evenodd"
      d="M0 10L8 2H24L32 10V38L24 46H8L0 38Z M10 18L14 14H18L22 18V30L18 34H14L10 30Z"
    />
    <path d="M18 0H25L11 46H4Z" />
  </g>
</svg>
