<svg
  width="680"
  height="280"
  viewBox="0 0 680 280"
  role="img"
  xmlns="http://www.w3.org/2000/svg"
>
  <title>SentryØ Logo</title>
  <desc>Clean SentryØ logo with shield icon and Apple-style typography</desc>
  <rect width="680" height="280" fill="none" />
  <g transform="translate(340, 30)">
    <path
      d="M0 0 C0 0 -44 15 -44 18 L-44 64 C-44 90 -22 112 0 120 C22 112 44 90 44 64 L44 18 C44 15 0 0 0 0 Z"
      fill="none"
      stroke="#1d1d1f"
      stroke-width="2.2"
      stroke-linejoin="round"
      stroke-linecap="round"
    />
    <circle
      cx="0"
      cy="65"
      r="16"
      fill="none"
      stroke="#1d1d1f"
      stroke-width="2"
    />
    <circle cx="0" cy="65" r="4" fill="#1d1d1f" />
    <line
      x1="0"
      y1="44"
      x2="0"
      y2="53"
      stroke="#1d1d1f"
      stroke-width="2"
      stroke-linecap="round"
    />
    <line
      x1="0"
      y1="77"
      x2="0"
      y2="86"
      stroke="#1d1d1f"
      stroke-width="2"
      stroke-linecap="round"
    />
    <line
      x1="-21"
      y1="65"
      x2="-12"
      y2="65"
      stroke="#1d1d1f"
      stroke-width="2"
      stroke-linecap="round"
    />
    <line
      x1="12"
      y1="65"
      x2="21"
      y2="65"
      stroke="#1d1d1f"
      stroke-width="2"
      stroke-linecap="round"
    />
  </g>
  <text
    x="340"
    y="230"
    text-anchor="middle"
    font-size="72"
    font-weight="200"
    letter-spacing="-0.5"
    font-family="-apple-system, 'SF Pro Display', 'Helvetica Neue', Helvetica, Arial, sans-serif"
    fill="#1d1d1f"
  >
    SentryØ
  </text>
</svg>
